# Blender v3.1.2 OBJ File: ''
# www.blender.org
mtllib homeTest.mtl
o Cylinder_Cylinder.001
v 0.000000 2.500000 -2.000000
v 0.000000 2.500000 2.000000
v 1.732051 1.000000 -2.000000
v 1.732051 1.000000 2.000000
v -1.732051 1.000000 -2.000000
v -1.732051 1.000000 2.000000
v 1.500000 1.000000 -2.000000
v 1.500000 -1.000000 -2.000000
v 1.500000 1.000000 2.000000
v 1.500000 -1.000000 2.000000
v -1.500000 1.000000 -2.000000
v -1.500000 -1.000000 -2.000000
v -1.500000 1.000000 2.000000
v -1.500000 -1.000000 2.000000
vt 1.000000 0.500000
vt 1.000000 1.000000
vt 0.666667 1.000000
vt 0.666667 0.500000
vt 0.333333 1.000000
vt 0.333333 0.500000
vt 0.457846 0.130000
vt 0.250000 0.490000
vt 0.042154 0.130000
vt -0.000000 1.000000
vt -0.000000 0.500000
vt 0.750000 0.490000
vt 0.957846 0.130000
vt 0.542154 0.130000
vt 0.625000 0.500000
vt 0.875000 0.500000
vt 0.875000 0.750000
vt 0.625000 0.750000
vt 0.375000 0.750000
vt 0.625000 1.000000
vt 0.375000 1.000000
vt 0.375000 0.000000
vt 0.625000 0.000000
vt 0.625000 0.250000
vt 0.375000 0.250000
vt 0.125000 0.500000
vt 0.375000 0.500000
vt 0.125000 0.750000
vn 0.6547 0.7559 0.0000
vn -0.0000 -1.0000 -0.0000
vn 0.0000 0.0000 1.0000
vn -0.6547 0.7559 0.0000
vn 0.0000 0.0000 -1.0000
vn 0.0000 1.0000 0.0000
vn -1.0000 -0.0000 0.0000
vn 1.0000 0.0000 0.0000
usemtl Material
s off
f 1/1/1 2/2/1 4/3/1 3/4/1
f 3/4/2 4/3/2 6/5/2 5/6/2
f 4/7/3 2/8/3 6/9/3
f 5/6/4 6/5/4 2/10/4 1/11/4
f 1/12/5 3/13/5 5/14/5
f 7/15/6 11/16/6 13/17/6 9/18/6
f 10/19/3 9/18/3 13/20/3 14/21/3
f 14/22/7 13/23/7 11/24/7 12/25/7
f 12/26/2 8/27/2 10/19/2 14/28/2
f 8/27/8 7/15/8 9/18/8 10/19/8
f 12/25/5 11/24/5 7/15/5 8/27/5
